G04 #@! TF.GenerationSoftware,KiCad,Pcbnew,5.0.2+dfsg1-1~bpo9+1*
G04 #@! TF.CreationDate,2019-09-09T18:37:33+01:00*
G04 #@! TF.ProjectId,smart_glasses_tv_b_gone,736d6172-745f-4676-9c61-737365735f74,rev?*
G04 #@! TF.SameCoordinates,Original*
G04 #@! TF.FileFunction,Legend,Bot*
G04 #@! TF.FilePolarity,Positive*
%FSLAX46Y46*%
G04 Gerber Fmt 4.6, Leading zero omitted, Abs format (unit mm)*
G04 Created by KiCad (PCBNEW 5.0.2+dfsg1-1~bpo9+1) date Mon 09 Sep 2019 18:37:33 BST*
%MOMM*%
%LPD*%
G01*
G04 APERTURE LIST*
%ADD10C,0.300000*%
G04 APERTURE END LIST*
D10*
X141499242Y-76375342D02*
X141284957Y-76446771D01*
X140927814Y-76446771D01*
X140784957Y-76375342D01*
X140713528Y-76303914D01*
X140642100Y-76161057D01*
X140642100Y-76018200D01*
X140713528Y-75875342D01*
X140784957Y-75803914D01*
X140927814Y-75732485D01*
X141213528Y-75661057D01*
X141356385Y-75589628D01*
X141427814Y-75518200D01*
X141499242Y-75375342D01*
X141499242Y-75232485D01*
X141427814Y-75089628D01*
X141356385Y-75018200D01*
X141213528Y-74946771D01*
X140856385Y-74946771D01*
X140642100Y-75018200D01*
X139999242Y-76446771D02*
X139999242Y-75446771D01*
X139999242Y-75589628D02*
X139927814Y-75518200D01*
X139784957Y-75446771D01*
X139570671Y-75446771D01*
X139427814Y-75518200D01*
X139356385Y-75661057D01*
X139356385Y-76446771D01*
X139356385Y-75661057D02*
X139284957Y-75518200D01*
X139142100Y-75446771D01*
X138927814Y-75446771D01*
X138784957Y-75518200D01*
X138713528Y-75661057D01*
X138713528Y-76446771D01*
X137356385Y-76446771D02*
X137356385Y-75661057D01*
X137427814Y-75518200D01*
X137570671Y-75446771D01*
X137856385Y-75446771D01*
X137999242Y-75518200D01*
X137356385Y-76375342D02*
X137499242Y-76446771D01*
X137856385Y-76446771D01*
X137999242Y-76375342D01*
X138070671Y-76232485D01*
X138070671Y-76089628D01*
X137999242Y-75946771D01*
X137856385Y-75875342D01*
X137499242Y-75875342D01*
X137356385Y-75803914D01*
X136642100Y-76446771D02*
X136642100Y-75446771D01*
X136642100Y-75732485D02*
X136570671Y-75589628D01*
X136499242Y-75518200D01*
X136356385Y-75446771D01*
X136213528Y-75446771D01*
X135927814Y-75446771D02*
X135356385Y-75446771D01*
X135713528Y-74946771D02*
X135713528Y-76232485D01*
X135642100Y-76375342D01*
X135499242Y-76446771D01*
X135356385Y-76446771D01*
X132927814Y-75018200D02*
X133070671Y-74946771D01*
X133284957Y-74946771D01*
X133499242Y-75018200D01*
X133642100Y-75161057D01*
X133713528Y-75303914D01*
X133784957Y-75589628D01*
X133784957Y-75803914D01*
X133713528Y-76089628D01*
X133642100Y-76232485D01*
X133499242Y-76375342D01*
X133284957Y-76446771D01*
X133142100Y-76446771D01*
X132927814Y-76375342D01*
X132856385Y-76303914D01*
X132856385Y-75803914D01*
X133142100Y-75803914D01*
X131999242Y-76446771D02*
X132142100Y-76375342D01*
X132213528Y-76232485D01*
X132213528Y-74946771D01*
X130784957Y-76446771D02*
X130784957Y-75661057D01*
X130856385Y-75518200D01*
X130999242Y-75446771D01*
X131284957Y-75446771D01*
X131427814Y-75518200D01*
X130784957Y-76375342D02*
X130927814Y-76446771D01*
X131284957Y-76446771D01*
X131427814Y-76375342D01*
X131499242Y-76232485D01*
X131499242Y-76089628D01*
X131427814Y-75946771D01*
X131284957Y-75875342D01*
X130927814Y-75875342D01*
X130784957Y-75803914D01*
X130142100Y-76375342D02*
X129999242Y-76446771D01*
X129713528Y-76446771D01*
X129570671Y-76375342D01*
X129499242Y-76232485D01*
X129499242Y-76161057D01*
X129570671Y-76018200D01*
X129713528Y-75946771D01*
X129927814Y-75946771D01*
X130070671Y-75875342D01*
X130142100Y-75732485D01*
X130142100Y-75661057D01*
X130070671Y-75518200D01*
X129927814Y-75446771D01*
X129713528Y-75446771D01*
X129570671Y-75518200D01*
X128927814Y-76375342D02*
X128784957Y-76446771D01*
X128499242Y-76446771D01*
X128356385Y-76375342D01*
X128284957Y-76232485D01*
X128284957Y-76161057D01*
X128356385Y-76018200D01*
X128499242Y-75946771D01*
X128713528Y-75946771D01*
X128856385Y-75875342D01*
X128927814Y-75732485D01*
X128927814Y-75661057D01*
X128856385Y-75518200D01*
X128713528Y-75446771D01*
X128499242Y-75446771D01*
X128356385Y-75518200D01*
X127070671Y-76375342D02*
X127213528Y-76446771D01*
X127499242Y-76446771D01*
X127642100Y-76375342D01*
X127713528Y-76232485D01*
X127713528Y-75661057D01*
X127642100Y-75518200D01*
X127499242Y-75446771D01*
X127213528Y-75446771D01*
X127070671Y-75518200D01*
X126999242Y-75661057D01*
X126999242Y-75803914D01*
X127713528Y-75946771D01*
X126427814Y-76375342D02*
X126284957Y-76446771D01*
X125999242Y-76446771D01*
X125856385Y-76375342D01*
X125784957Y-76232485D01*
X125784957Y-76161057D01*
X125856385Y-76018200D01*
X125999242Y-75946771D01*
X126213528Y-75946771D01*
X126356385Y-75875342D01*
X126427814Y-75732485D01*
X126427814Y-75661057D01*
X126356385Y-75518200D01*
X126213528Y-75446771D01*
X125999242Y-75446771D01*
X125856385Y-75518200D01*
X141159785Y-81995271D02*
X140302642Y-81995271D01*
X140731214Y-83495271D02*
X140731214Y-81995271D01*
X140016928Y-81995271D02*
X139516928Y-83495271D01*
X139016928Y-81995271D01*
X136874071Y-82709557D02*
X136659785Y-82780985D01*
X136588357Y-82852414D01*
X136516928Y-82995271D01*
X136516928Y-83209557D01*
X136588357Y-83352414D01*
X136659785Y-83423842D01*
X136802642Y-83495271D01*
X137374071Y-83495271D01*
X137374071Y-81995271D01*
X136874071Y-81995271D01*
X136731214Y-82066700D01*
X136659785Y-82138128D01*
X136588357Y-82280985D01*
X136588357Y-82423842D01*
X136659785Y-82566700D01*
X136731214Y-82638128D01*
X136874071Y-82709557D01*
X137374071Y-82709557D01*
X133945500Y-82066700D02*
X134088357Y-81995271D01*
X134302642Y-81995271D01*
X134516928Y-82066700D01*
X134659785Y-82209557D01*
X134731214Y-82352414D01*
X134802642Y-82638128D01*
X134802642Y-82852414D01*
X134731214Y-83138128D01*
X134659785Y-83280985D01*
X134516928Y-83423842D01*
X134302642Y-83495271D01*
X134159785Y-83495271D01*
X133945500Y-83423842D01*
X133874071Y-83352414D01*
X133874071Y-82852414D01*
X134159785Y-82852414D01*
X133016928Y-83495271D02*
X133159785Y-83423842D01*
X133231214Y-83352414D01*
X133302642Y-83209557D01*
X133302642Y-82780985D01*
X133231214Y-82638128D01*
X133159785Y-82566700D01*
X133016928Y-82495271D01*
X132802642Y-82495271D01*
X132659785Y-82566700D01*
X132588357Y-82638128D01*
X132516928Y-82780985D01*
X132516928Y-83209557D01*
X132588357Y-83352414D01*
X132659785Y-83423842D01*
X132802642Y-83495271D01*
X133016928Y-83495271D01*
X131874071Y-82495271D02*
X131874071Y-83495271D01*
X131874071Y-82638128D02*
X131802642Y-82566700D01*
X131659785Y-82495271D01*
X131445500Y-82495271D01*
X131302642Y-82566700D01*
X131231214Y-82709557D01*
X131231214Y-83495271D01*
X129945500Y-83423842D02*
X130088357Y-83495271D01*
X130374071Y-83495271D01*
X130516928Y-83423842D01*
X130588357Y-83280985D01*
X130588357Y-82709557D01*
X130516928Y-82566700D01*
X130374071Y-82495271D01*
X130088357Y-82495271D01*
X129945500Y-82566700D01*
X129874071Y-82709557D01*
X129874071Y-82852414D01*
X130588357Y-82995271D01*
X133506728Y-73159157D02*
X134006728Y-73159157D01*
X134006728Y-73944871D02*
X134006728Y-72444871D01*
X133292442Y-72444871D01*
X132078157Y-73944871D02*
X132078157Y-73159157D01*
X132149585Y-73016300D01*
X132292442Y-72944871D01*
X132578157Y-72944871D01*
X132721014Y-73016300D01*
X132078157Y-73873442D02*
X132221014Y-73944871D01*
X132578157Y-73944871D01*
X132721014Y-73873442D01*
X132792442Y-73730585D01*
X132792442Y-73587728D01*
X132721014Y-73444871D01*
X132578157Y-73373442D01*
X132221014Y-73373442D01*
X132078157Y-73302014D01*
X130721014Y-73873442D02*
X130863871Y-73944871D01*
X131149585Y-73944871D01*
X131292442Y-73873442D01*
X131363871Y-73802014D01*
X131435299Y-73659157D01*
X131435299Y-73230585D01*
X131363871Y-73087728D01*
X131292442Y-73016300D01*
X131149585Y-72944871D01*
X130863871Y-72944871D01*
X130721014Y-73016300D01*
X129506728Y-73873442D02*
X129649585Y-73944871D01*
X129935299Y-73944871D01*
X130078157Y-73873442D01*
X130149585Y-73730585D01*
X130149585Y-73159157D01*
X130078157Y-73016300D01*
X129935299Y-72944871D01*
X129649585Y-72944871D01*
X129506728Y-73016300D01*
X129435299Y-73159157D01*
X129435299Y-73302014D01*
X130149585Y-73444871D01*
X128578157Y-73944871D02*
X128721014Y-73873442D01*
X128792442Y-73730585D01*
X128792442Y-72444871D01*
X127435299Y-73873442D02*
X127578157Y-73944871D01*
X127863871Y-73944871D01*
X128006728Y-73873442D01*
X128078157Y-73730585D01*
X128078157Y-73159157D01*
X128006728Y-73016300D01*
X127863871Y-72944871D01*
X127578157Y-72944871D01*
X127435299Y-73016300D01*
X127363871Y-73159157D01*
X127363871Y-73302014D01*
X128078157Y-73444871D01*
X126792442Y-73873442D02*
X126649585Y-73944871D01*
X126363871Y-73944871D01*
X126221014Y-73873442D01*
X126149585Y-73730585D01*
X126149585Y-73659157D01*
X126221014Y-73516300D01*
X126363871Y-73444871D01*
X126578157Y-73444871D01*
X126721014Y-73373442D01*
X126792442Y-73230585D01*
X126792442Y-73159157D01*
X126721014Y-73016300D01*
X126578157Y-72944871D01*
X126363871Y-72944871D01*
X126221014Y-73016300D01*
X125578157Y-73873442D02*
X125435299Y-73944871D01*
X125149585Y-73944871D01*
X125006728Y-73873442D01*
X124935299Y-73730585D01*
X124935299Y-73659157D01*
X125006728Y-73516300D01*
X125149585Y-73444871D01*
X125363871Y-73444871D01*
X125506728Y-73373442D01*
X125578157Y-73230585D01*
X125578157Y-73159157D01*
X125506728Y-73016300D01*
X125363871Y-72944871D01*
X125149585Y-72944871D01*
X125006728Y-73016300D01*
X124506728Y-72944871D02*
X123935299Y-72944871D01*
X124292442Y-72444871D02*
X124292442Y-73730585D01*
X124221014Y-73873442D01*
X124078157Y-73944871D01*
X123935299Y-73944871D01*
X122863871Y-73873442D02*
X123006728Y-73944871D01*
X123292442Y-73944871D01*
X123435299Y-73873442D01*
X123506728Y-73730585D01*
X123506728Y-73159157D01*
X123435299Y-73016300D01*
X123292442Y-72944871D01*
X123006728Y-72944871D01*
X122863871Y-73016300D01*
X122792442Y-73159157D01*
X122792442Y-73302014D01*
X123506728Y-73444871D01*
X121506728Y-73873442D02*
X121649585Y-73944871D01*
X121935299Y-73944871D01*
X122078157Y-73873442D01*
X122149585Y-73802014D01*
X122221014Y-73659157D01*
X122221014Y-73230585D01*
X122149585Y-73087728D01*
X122078157Y-73016300D01*
X121935299Y-72944871D01*
X121649585Y-72944871D01*
X121506728Y-73016300D01*
X120863871Y-73944871D02*
X120863871Y-72444871D01*
X120221014Y-73944871D02*
X120221014Y-73159157D01*
X120292442Y-73016300D01*
X120435299Y-72944871D01*
X120649585Y-72944871D01*
X120792442Y-73016300D01*
X120863871Y-73087728D01*
X118435299Y-72587728D02*
X118363871Y-72516300D01*
X118221014Y-72444871D01*
X117863871Y-72444871D01*
X117721014Y-72516300D01*
X117649585Y-72587728D01*
X117578157Y-72730585D01*
X117578157Y-72873442D01*
X117649585Y-73087728D01*
X118506728Y-73944871D01*
X117578157Y-73944871D01*
X116649585Y-72444871D02*
X116506728Y-72444871D01*
X116363871Y-72516300D01*
X116292442Y-72587728D01*
X116221014Y-72730585D01*
X116149585Y-73016300D01*
X116149585Y-73373442D01*
X116221014Y-73659157D01*
X116292442Y-73802014D01*
X116363871Y-73873442D01*
X116506728Y-73944871D01*
X116649585Y-73944871D01*
X116792442Y-73873442D01*
X116863871Y-73802014D01*
X116935299Y-73659157D01*
X117006728Y-73373442D01*
X117006728Y-73016300D01*
X116935299Y-72730585D01*
X116863871Y-72587728D01*
X116792442Y-72516300D01*
X116649585Y-72444871D01*
X114721014Y-73944871D02*
X115578157Y-73944871D01*
X115149585Y-73944871D02*
X115149585Y-72444871D01*
X115292442Y-72659157D01*
X115435299Y-72802014D01*
X115578157Y-72873442D01*
X114006728Y-73944871D02*
X113721014Y-73944871D01*
X113578157Y-73873442D01*
X113506728Y-73802014D01*
X113363871Y-73587728D01*
X113292442Y-73302014D01*
X113292442Y-72730585D01*
X113363871Y-72587728D01*
X113435299Y-72516300D01*
X113578157Y-72444871D01*
X113863871Y-72444871D01*
X114006728Y-72516300D01*
X114078157Y-72587728D01*
X114149585Y-72730585D01*
X114149585Y-73087728D01*
X114078157Y-73230585D01*
X114006728Y-73302014D01*
X113863871Y-73373442D01*
X113578157Y-73373442D01*
X113435299Y-73302014D01*
X113363871Y-73230585D01*
X113292442Y-73087728D01*
M02*
