G04 #@! TF.GenerationSoftware,KiCad,Pcbnew,5.0.2+dfsg1-1~bpo9+1*
G04 #@! TF.CreationDate,2019-09-09T18:37:33+01:00*
G04 #@! TF.ProjectId,smart_glasses_tv_b_gone,736d6172-745f-4676-9c61-737365735f74,rev?*
G04 #@! TF.SameCoordinates,Original*
G04 #@! TF.FileFunction,Copper,L2,Bot*
G04 #@! TF.FilePolarity,Positive*
%FSLAX46Y46*%
G04 Gerber Fmt 4.6, Leading zero omitted, Abs format (unit mm)*
G04 Created by KiCad (PCBNEW 5.0.2+dfsg1-1~bpo9+1) date Mon 09 Sep 2019 18:37:33 BST*
%MOMM*%
%LPD*%
G01*
G04 APERTURE LIST*
G04 #@! TA.AperFunction,ComponentPad*
%ADD10C,1.600000*%
G04 #@! TD*
G04 #@! TA.AperFunction,ViaPad*
%ADD11C,0.800000*%
G04 #@! TD*
G04 #@! TA.AperFunction,Conductor*
%ADD12C,0.250000*%
G04 #@! TD*
G04 #@! TA.AperFunction,Conductor*
%ADD13C,0.254000*%
G04 #@! TD*
G04 APERTURE END LIST*
D10*
G04 #@! TO.P,U4,1*
G04 #@! TO.N,Net-(Q1-Pad2)*
X127660400Y-82524600D03*
G04 #@! TO.P,U4,2*
G04 #@! TO.N,Net-(SW1-Pad1)*
X125120400Y-82524600D03*
G04 #@! TD*
G04 #@! TO.P,D1,2*
G04 #@! TO.N,Net-(D1-Pad2)*
X115544600Y-82494120D03*
G04 #@! TO.P,D1,1*
G04 #@! TO.N,Net-(D1-Pad1)*
X115544600Y-79959200D03*
G04 #@! TD*
G04 #@! TO.P,Q1,1*
G04 #@! TO.N,Net-(Q1-Pad1)*
X120573800Y-80657700D03*
G04 #@! TO.P,Q1,2*
G04 #@! TO.N,Net-(Q1-Pad2)*
X123113800Y-80657700D03*
G04 #@! TO.P,Q1,3*
G04 #@! TO.N,Net-(D1-Pad1)*
X118033800Y-80657700D03*
G04 #@! TD*
G04 #@! TO.P,U2,1*
G04 #@! TO.N,Net-(SW1-Pad2)*
X111823500Y-75793600D03*
G04 #@! TO.P,U2,2*
G04 #@! TO.N,Net-(Q1-Pad2)*
X111823500Y-78333600D03*
G04 #@! TO.P,U2,3*
G04 #@! TO.N,Net-(D1-Pad2)*
X111823500Y-80873600D03*
G04 #@! TD*
D11*
G04 #@! TO.N,Net-(Q1-Pad1)*
X128485900Y-80657700D03*
G04 #@! TO.N,Net-(Q1-Pad2)*
X114757200Y-75158600D03*
X140271500Y-80149700D03*
G04 #@! TO.N,Net-(SW2-Pad1)*
X123977400Y-76263500D03*
X136791700Y-79794100D03*
G04 #@! TD*
D12*
G04 #@! TO.N,Net-(Q1-Pad1)*
X127735190Y-80657700D02*
X125868290Y-78790800D01*
X128485900Y-80657700D02*
X127735190Y-80657700D01*
X122440700Y-78790800D02*
X120573800Y-80657700D01*
X125868290Y-78790800D02*
X122440700Y-78790800D01*
G04 #@! TO.N,Net-(SW2-Pad1)*
X123977400Y-76263500D02*
X126085600Y-78371700D01*
X135369300Y-78371700D02*
X136791700Y-79794100D01*
X126085600Y-78371700D02*
X135369300Y-78371700D01*
G04 #@! TD*
D13*
G04 #@! TO.N,Net-(Q1-Pad2)*
G36*
X141606601Y-83923200D02*
X128064982Y-83923200D01*
X128414405Y-83778464D01*
X128488539Y-83532345D01*
X127660400Y-82704205D01*
X126832261Y-83532345D01*
X126906395Y-83778464D01*
X127309066Y-83923200D01*
X125493716Y-83923200D01*
X125933262Y-83741134D01*
X126336934Y-83337462D01*
X126383925Y-83224017D01*
X126406536Y-83278605D01*
X126652655Y-83352739D01*
X127480795Y-82524600D01*
X126652655Y-81696461D01*
X126406536Y-81770595D01*
X126385526Y-81829048D01*
X126336934Y-81711738D01*
X125933262Y-81308066D01*
X125405839Y-81089600D01*
X124834961Y-81089600D01*
X124421950Y-81260675D01*
X124560765Y-80874477D01*
X124533578Y-80304246D01*
X124367664Y-79903695D01*
X124121545Y-79829561D01*
X123293405Y-80657700D01*
X123307548Y-80671842D01*
X123127942Y-80851448D01*
X123113800Y-80837305D01*
X122285661Y-81665445D01*
X122359795Y-81911564D01*
X122897023Y-82104665D01*
X123467254Y-82077478D01*
X123811421Y-81934919D01*
X123685400Y-82239161D01*
X123685400Y-82810039D01*
X123903866Y-83337462D01*
X124307538Y-83741134D01*
X124747084Y-83923200D01*
X115844331Y-83923200D01*
X116357462Y-83710654D01*
X116761134Y-83306982D01*
X116979600Y-82779559D01*
X116979600Y-82208681D01*
X116761134Y-81681258D01*
X116357462Y-81277586D01*
X116234516Y-81226660D01*
X116357462Y-81175734D01*
X116598800Y-80934396D01*
X116598800Y-80943139D01*
X116817266Y-81470562D01*
X117220938Y-81874234D01*
X117748361Y-82092700D01*
X118319239Y-82092700D01*
X118846662Y-81874234D01*
X119250334Y-81470562D01*
X119303800Y-81341484D01*
X119357266Y-81470562D01*
X119760938Y-81874234D01*
X120288361Y-82092700D01*
X120859239Y-82092700D01*
X121386662Y-81874234D01*
X121790334Y-81470562D01*
X121837325Y-81357117D01*
X121859936Y-81411705D01*
X122106055Y-81485839D01*
X122934195Y-80657700D01*
X122920052Y-80643558D01*
X123099658Y-80463952D01*
X123113800Y-80478095D01*
X123941939Y-79649955D01*
X123912072Y-79550800D01*
X125553489Y-79550800D01*
X127144863Y-81142176D01*
X127160450Y-81165503D01*
X126906395Y-81270736D01*
X126832261Y-81516855D01*
X127660400Y-82344995D01*
X127674542Y-82330852D01*
X127854148Y-82510458D01*
X127840005Y-82524600D01*
X128668145Y-83352739D01*
X128914264Y-83278605D01*
X129107365Y-82741377D01*
X129080178Y-82171146D01*
X128914264Y-81770595D01*
X128668147Y-81696461D01*
X128671908Y-81692700D01*
X128691774Y-81692700D01*
X129072180Y-81535131D01*
X129363331Y-81243980D01*
X129520900Y-80863574D01*
X129520900Y-80451826D01*
X129363331Y-80071420D01*
X129072180Y-79780269D01*
X128691774Y-79622700D01*
X128280026Y-79622700D01*
X127922913Y-79770621D01*
X127283992Y-79131700D01*
X135054499Y-79131700D01*
X135756700Y-79833902D01*
X135756700Y-79999974D01*
X135914269Y-80380380D01*
X136205420Y-80671531D01*
X136585826Y-80829100D01*
X136997574Y-80829100D01*
X137377980Y-80671531D01*
X137669131Y-80380380D01*
X137826700Y-79999974D01*
X137826700Y-79588226D01*
X137669131Y-79207820D01*
X137377980Y-78916669D01*
X136997574Y-78759100D01*
X136831502Y-78759100D01*
X135959631Y-77887230D01*
X135917229Y-77823771D01*
X135665837Y-77655796D01*
X135444152Y-77611700D01*
X135444147Y-77611700D01*
X135369300Y-77596812D01*
X135294453Y-77611700D01*
X126400402Y-77611700D01*
X125012400Y-76223699D01*
X125012400Y-76057626D01*
X124854831Y-75677220D01*
X124563680Y-75386069D01*
X124183274Y-75228500D01*
X123771526Y-75228500D01*
X123391120Y-75386069D01*
X123099969Y-75677220D01*
X122942400Y-76057626D01*
X122942400Y-76469374D01*
X123099969Y-76849780D01*
X123391120Y-77140931D01*
X123771526Y-77298500D01*
X123937599Y-77298500D01*
X124669898Y-78030800D01*
X122515546Y-78030800D01*
X122440699Y-78015912D01*
X122365852Y-78030800D01*
X122365848Y-78030800D01*
X122144163Y-78074896D01*
X122081602Y-78116698D01*
X121956226Y-78200471D01*
X121956224Y-78200473D01*
X121892771Y-78242871D01*
X121850373Y-78306324D01*
X120912102Y-79244596D01*
X120859239Y-79222700D01*
X120288361Y-79222700D01*
X119760938Y-79441166D01*
X119357266Y-79844838D01*
X119303800Y-79973916D01*
X119250334Y-79844838D01*
X118846662Y-79441166D01*
X118319239Y-79222700D01*
X117748361Y-79222700D01*
X117220938Y-79441166D01*
X116979600Y-79682504D01*
X116979600Y-79673761D01*
X116761134Y-79146338D01*
X116357462Y-78742666D01*
X115830039Y-78524200D01*
X115259161Y-78524200D01*
X114731738Y-78742666D01*
X114328066Y-79146338D01*
X114109600Y-79673761D01*
X114109600Y-80244639D01*
X114328066Y-80772062D01*
X114731738Y-81175734D01*
X114854684Y-81226660D01*
X114731738Y-81277586D01*
X114328066Y-81681258D01*
X114109600Y-82208681D01*
X114109600Y-82779559D01*
X114328066Y-83306982D01*
X114731738Y-83710654D01*
X115244869Y-83923200D01*
X111390100Y-83923200D01*
X111390100Y-82247312D01*
X111538061Y-82308600D01*
X112108939Y-82308600D01*
X112636362Y-82090134D01*
X113040034Y-81686462D01*
X113258500Y-81159039D01*
X113258500Y-80588161D01*
X113040034Y-80060738D01*
X112636362Y-79657066D01*
X112522917Y-79610075D01*
X112577505Y-79587464D01*
X112651639Y-79341345D01*
X111823500Y-78513205D01*
X111809358Y-78527348D01*
X111629753Y-78347743D01*
X111643895Y-78333600D01*
X112003105Y-78333600D01*
X112831245Y-79161739D01*
X113077364Y-79087605D01*
X113270465Y-78550377D01*
X113243278Y-77980146D01*
X113077364Y-77579595D01*
X112831245Y-77505461D01*
X112003105Y-78333600D01*
X111643895Y-78333600D01*
X111629753Y-78319458D01*
X111809358Y-78139852D01*
X111823500Y-78153995D01*
X112651639Y-77325855D01*
X112577505Y-77079736D01*
X112519052Y-77058726D01*
X112636362Y-77010134D01*
X113040034Y-76606462D01*
X113258500Y-76079039D01*
X113258500Y-75508161D01*
X113040034Y-74980738D01*
X112636362Y-74577066D01*
X112108939Y-74358600D01*
X111538061Y-74358600D01*
X111390100Y-74419888D01*
X111390100Y-72464600D01*
X141606600Y-72464600D01*
X141606601Y-83923200D01*
X141606601Y-83923200D01*
G37*
X141606601Y-83923200D02*
X128064982Y-83923200D01*
X128414405Y-83778464D01*
X128488539Y-83532345D01*
X127660400Y-82704205D01*
X126832261Y-83532345D01*
X126906395Y-83778464D01*
X127309066Y-83923200D01*
X125493716Y-83923200D01*
X125933262Y-83741134D01*
X126336934Y-83337462D01*
X126383925Y-83224017D01*
X126406536Y-83278605D01*
X126652655Y-83352739D01*
X127480795Y-82524600D01*
X126652655Y-81696461D01*
X126406536Y-81770595D01*
X126385526Y-81829048D01*
X126336934Y-81711738D01*
X125933262Y-81308066D01*
X125405839Y-81089600D01*
X124834961Y-81089600D01*
X124421950Y-81260675D01*
X124560765Y-80874477D01*
X124533578Y-80304246D01*
X124367664Y-79903695D01*
X124121545Y-79829561D01*
X123293405Y-80657700D01*
X123307548Y-80671842D01*
X123127942Y-80851448D01*
X123113800Y-80837305D01*
X122285661Y-81665445D01*
X122359795Y-81911564D01*
X122897023Y-82104665D01*
X123467254Y-82077478D01*
X123811421Y-81934919D01*
X123685400Y-82239161D01*
X123685400Y-82810039D01*
X123903866Y-83337462D01*
X124307538Y-83741134D01*
X124747084Y-83923200D01*
X115844331Y-83923200D01*
X116357462Y-83710654D01*
X116761134Y-83306982D01*
X116979600Y-82779559D01*
X116979600Y-82208681D01*
X116761134Y-81681258D01*
X116357462Y-81277586D01*
X116234516Y-81226660D01*
X116357462Y-81175734D01*
X116598800Y-80934396D01*
X116598800Y-80943139D01*
X116817266Y-81470562D01*
X117220938Y-81874234D01*
X117748361Y-82092700D01*
X118319239Y-82092700D01*
X118846662Y-81874234D01*
X119250334Y-81470562D01*
X119303800Y-81341484D01*
X119357266Y-81470562D01*
X119760938Y-81874234D01*
X120288361Y-82092700D01*
X120859239Y-82092700D01*
X121386662Y-81874234D01*
X121790334Y-81470562D01*
X121837325Y-81357117D01*
X121859936Y-81411705D01*
X122106055Y-81485839D01*
X122934195Y-80657700D01*
X122920052Y-80643558D01*
X123099658Y-80463952D01*
X123113800Y-80478095D01*
X123941939Y-79649955D01*
X123912072Y-79550800D01*
X125553489Y-79550800D01*
X127144863Y-81142176D01*
X127160450Y-81165503D01*
X126906395Y-81270736D01*
X126832261Y-81516855D01*
X127660400Y-82344995D01*
X127674542Y-82330852D01*
X127854148Y-82510458D01*
X127840005Y-82524600D01*
X128668145Y-83352739D01*
X128914264Y-83278605D01*
X129107365Y-82741377D01*
X129080178Y-82171146D01*
X128914264Y-81770595D01*
X128668147Y-81696461D01*
X128671908Y-81692700D01*
X128691774Y-81692700D01*
X129072180Y-81535131D01*
X129363331Y-81243980D01*
X129520900Y-80863574D01*
X129520900Y-80451826D01*
X129363331Y-80071420D01*
X129072180Y-79780269D01*
X128691774Y-79622700D01*
X128280026Y-79622700D01*
X127922913Y-79770621D01*
X127283992Y-79131700D01*
X135054499Y-79131700D01*
X135756700Y-79833902D01*
X135756700Y-79999974D01*
X135914269Y-80380380D01*
X136205420Y-80671531D01*
X136585826Y-80829100D01*
X136997574Y-80829100D01*
X137377980Y-80671531D01*
X137669131Y-80380380D01*
X137826700Y-79999974D01*
X137826700Y-79588226D01*
X137669131Y-79207820D01*
X137377980Y-78916669D01*
X136997574Y-78759100D01*
X136831502Y-78759100D01*
X135959631Y-77887230D01*
X135917229Y-77823771D01*
X135665837Y-77655796D01*
X135444152Y-77611700D01*
X135444147Y-77611700D01*
X135369300Y-77596812D01*
X135294453Y-77611700D01*
X126400402Y-77611700D01*
X125012400Y-76223699D01*
X125012400Y-76057626D01*
X124854831Y-75677220D01*
X124563680Y-75386069D01*
X124183274Y-75228500D01*
X123771526Y-75228500D01*
X123391120Y-75386069D01*
X123099969Y-75677220D01*
X122942400Y-76057626D01*
X122942400Y-76469374D01*
X123099969Y-76849780D01*
X123391120Y-77140931D01*
X123771526Y-77298500D01*
X123937599Y-77298500D01*
X124669898Y-78030800D01*
X122515546Y-78030800D01*
X122440699Y-78015912D01*
X122365852Y-78030800D01*
X122365848Y-78030800D01*
X122144163Y-78074896D01*
X122081602Y-78116698D01*
X121956226Y-78200471D01*
X121956224Y-78200473D01*
X121892771Y-78242871D01*
X121850373Y-78306324D01*
X120912102Y-79244596D01*
X120859239Y-79222700D01*
X120288361Y-79222700D01*
X119760938Y-79441166D01*
X119357266Y-79844838D01*
X119303800Y-79973916D01*
X119250334Y-79844838D01*
X118846662Y-79441166D01*
X118319239Y-79222700D01*
X117748361Y-79222700D01*
X117220938Y-79441166D01*
X116979600Y-79682504D01*
X116979600Y-79673761D01*
X116761134Y-79146338D01*
X116357462Y-78742666D01*
X115830039Y-78524200D01*
X115259161Y-78524200D01*
X114731738Y-78742666D01*
X114328066Y-79146338D01*
X114109600Y-79673761D01*
X114109600Y-80244639D01*
X114328066Y-80772062D01*
X114731738Y-81175734D01*
X114854684Y-81226660D01*
X114731738Y-81277586D01*
X114328066Y-81681258D01*
X114109600Y-82208681D01*
X114109600Y-82779559D01*
X114328066Y-83306982D01*
X114731738Y-83710654D01*
X115244869Y-83923200D01*
X111390100Y-83923200D01*
X111390100Y-82247312D01*
X111538061Y-82308600D01*
X112108939Y-82308600D01*
X112636362Y-82090134D01*
X113040034Y-81686462D01*
X113258500Y-81159039D01*
X113258500Y-80588161D01*
X113040034Y-80060738D01*
X112636362Y-79657066D01*
X112522917Y-79610075D01*
X112577505Y-79587464D01*
X112651639Y-79341345D01*
X111823500Y-78513205D01*
X111809358Y-78527348D01*
X111629753Y-78347743D01*
X111643895Y-78333600D01*
X112003105Y-78333600D01*
X112831245Y-79161739D01*
X113077364Y-79087605D01*
X113270465Y-78550377D01*
X113243278Y-77980146D01*
X113077364Y-77579595D01*
X112831245Y-77505461D01*
X112003105Y-78333600D01*
X111643895Y-78333600D01*
X111629753Y-78319458D01*
X111809358Y-78139852D01*
X111823500Y-78153995D01*
X112651639Y-77325855D01*
X112577505Y-77079736D01*
X112519052Y-77058726D01*
X112636362Y-77010134D01*
X113040034Y-76606462D01*
X113258500Y-76079039D01*
X113258500Y-75508161D01*
X113040034Y-74980738D01*
X112636362Y-74577066D01*
X112108939Y-74358600D01*
X111538061Y-74358600D01*
X111390100Y-74419888D01*
X111390100Y-72464600D01*
X141606600Y-72464600D01*
X141606601Y-83923200D01*
G04 #@! TD*
M02*
